<?xml version="1.0" encoding="utf-8"?>
<!-- Generator: Adobe Illustrator 19.1.0, SVG Export Plug-In . SVG Version: 6.00 Build 0)  -->
<svg version="1.1" id="Layer_1" xmlns="http://www.w3.org/2000/svg" xmlns:xlink="http://www.w3.org/1999/xlink" x="0px" y="0px"
	 viewBox="0 0 100 90" style="enable-background:new 0 0 100 90;" xml:space="preserve">
<style type="text/css">
	.st0{fill:#78BA43;}
	.st1{fill:#77BB33;}
</style>
<path class="st1" d="M44.8,89.5C20.1,89.5,0,69.4,0,44.7S20.1,0,44.8,0S89.6,20,89.6,44.7h-6c0-21.4-17.4-38.8-38.8-38.8
	S6,23.3,6,44.7s17.4,38.8,38.8,38.8V89.5z"/>
<polygon class="st1" points="99.3,42.6 86.6,59 74,42.6 "/>
<g>
	<path class="st1" d="M70.6,90H51.8v-4l6.8-6.8c2-2.1,3.3-3.5,3.9-4.3c0.6-0.8,1.1-1.5,1.3-2.2c0.3-0.7,0.4-1.4,0.4-2.1
		c0-1.1-0.3-1.9-0.9-2.4c-0.6-0.5-1.4-0.8-2.4-0.8c-1,0-2.1,0.2-3,0.7c-1,0.5-2,1.2-3.1,2l-3.1-3.7c1.3-1.1,2.4-1.9,3.3-2.4
		c0.9-0.5,1.8-0.8,2.9-1.1c1-0.3,2.2-0.4,3.5-0.4c1.7,0,3.2,0.3,4.5,0.9s2.3,1.5,3,2.6c0.7,1.1,1.1,2.4,1.1,3.8
		c0,1.2-0.2,2.4-0.7,3.5c-0.4,1.1-1.1,2.2-2,3.3c-0.9,1.1-2.5,2.8-4.8,4.9l-3.5,3.3v0.3h11.7V90z"/>
	<path class="st1" d="M92.8,84.4h-3.2V90h-5.6v-5.6H72.4v-4L84.3,63h5.3v16.9h3.2V84.4z M83.9,79.9v-4.6c0-0.8,0-1.9,0.1-3.3
		c0.1-1.4,0.1-2.3,0.1-2.5H84c-0.5,1-1,2-1.6,2.9l-4.9,7.5H83.9z"/>
</g>
<path class="st1" d="M67.8,28.3L47.2,48.8c-1.3,1.3-3.4,1.3-4.6,0l-0.3-0.3c-1.3-1.3-1.3-3.4,0-4.6l20.6-20.6c1.3-1.3,3.4-1.3,4.6,0
	l0.3,0.3C69,24.9,69,27,67.8,28.3z"/>
<path class="st1" d="M36.3,32.7l11.2,11.2c1.3,1.3,1.3,3.5,0,4.8l-0.2,0.2c-1.3,1.3-3.5,1.3-4.8,0L31.3,37.6c-1.3-1.3-1.3-3.5,0-4.8
	l0.2-0.2C32.8,31.4,35,31.4,36.3,32.7z"/>
<rect x="43.3" y="4.9" class="st1" width="2.7" height="9.6"/>
<rect x="3" y="43.8" class="st1" width="11.4" height="2.7"/>
</svg>
